<?xml version="1.0" encoding="utf-8"?>
<!-- Generator: Adobe Illustrator 25.3.1, SVG Export Plug-In . SVG Version: 6.00 Build 0)  -->
<svg version="1.1" id="Layer_1" xmlns="http://www.w3.org/2000/svg" xmlns:xlink="http://www.w3.org/1999/xlink" x="0px" y="0px"
	 viewBox="0 0 1024 1024" style="enable-background:new 0 0 1024 1024;" xml:space="preserve">
<style type="text/css">
	.st0{fill:#7AB55C;}
	.st1{fill:#9636FF;}
</style>
<g id="icomoon-ignore">
</g>
<path class="st0" d="M513.3,886.1l266.7-57.7c0,0-96.2-650.9-97-655.2c-0.7-4.3-4.2-7.1-7.8-7.1c-3.6,0-71.3-5-71.3-5
	S556.7,114,550.7,109c-1.7-1.4-2.8-2.1-4.5-2.7l-33.8,779.9L513.3,886.1z M379.2,417.8c0,0-29.9-15.7-65.6-15.7
	c-53.5,0-55.6,33.5-55.6,42.2c0,45.5,119.7,63.4,119.7,171.1c0,84.8-53.2,139-125.9,139c-87,0-130.8-54.1-130.8-54.1l23.9-77.1
	c0,0,46,39.4,84.3,39.4c24.9,0,36-20.1,36-34.4c0-59.8-98.1-62.6-98.1-161.1c-1.3-82.7,58.1-163.2,178.4-163.2
	c46.5,0,69.3,13.3,69.3,13.3L380,417.4L379.2,417.8z M359.3,30.7c5,0,10,1.4,15,5c-36.4,17.2-76.3,60.6-92.7,147.5
	c-24.2,7.9-47.8,15-69.8,21.4C230.9,138.6,277.3,31,359.3,31L359.3,30.7z M404.9,139.7v5c-27.9,8.6-58.5,17.9-88.5,27.2
	c17.2-65.7,49.3-97.7,77.1-109.8C400.6,80.6,404.9,105.5,404.9,139.7L404.9,139.7z M424.8,57.1c25.6,2.7,42.2,32,52.8,64.9
	c-12.9,4.2-27.2,8.5-42.8,13.5v-9.3C434.8,98.4,431.3,75.5,424.8,57.1L424.8,57.1z M535.4,104.7c-0.7,0-2.2,0.8-2.9,0.8
	c-0.7,0-10.7,2.8-26.4,7.8c-15.6-45.6-43.5-87.6-92.7-87.6h-4.3C394.9,7.7,377.7,0,362.8,0C248,0,193.2,143.3,176,216
	c-44.1,13.5-76.2,23.5-79.8,24.9c-24.9,7.9-25.6,8.6-28.5,32.2C64.9,290.2,0,792.8,0,792.8l501.1,94.1L535.4,104.7z"/>
<path class="st1" d="M982.4,576H621.5c-22.9,0-41.6,18.7-41.6,41.6v360.9c0,22.9,18.7,41.6,41.6,41.6h360.9
	c22.9,0,41.6-18.7,41.6-41.6V617.7C1024,594.8,1005.3,576,982.4,576z M700.9,936.6c-20.8,0-37.7-16.7-37.7-37.6
	c0-20.6,16.9-37.6,37.7-37.6c20.9,0,37.7,17,37.7,37.6C738.6,919.8,721.7,936.6,700.9,936.6z M795.6,936.9
	c0-35.5-13.8-68.9-38.8-93.9c-25.1-25.1-58.3-38.9-93.7-38.9v-54.3c103.1,0,187,83.9,187,187H795.6L795.6,936.9z M892,936.9
	c0-126.2-102.6-229-228.8-229v-54.3c156.1,0,283.2,127.2,283.2,283.3H892z"/>
</svg>
